<svg width="40" height="40" viewBox="0 0 40 40" fill="none" xmlns="http://www.w3.org/2000/svg">
<path d="M28.3475 34.9917L11.6808 35.0075C8.01417 35.0109 5.01167 32.0142 5.0075 28.3475L4.99167 11.6809C4.98834 8.0142 7.98501 5.0117 11.6517 5.00754L28.3183 4.9917C31.985 4.98837 34.9875 7.98504 34.9917 11.6517L35.0075 28.3184C35.0117 31.9859 32.0142 34.9884 28.3475 34.9917Z" fill="url(#paint0_radial)"/>
<path d="M28.3475 34.9917L11.6808 35.0075C8.01417 35.0109 5.01167 32.0142 5.0075 28.3475L4.99167 11.6809C4.98834 8.0142 7.98501 5.0117 11.6517 5.00754L28.3183 4.9917C31.985 4.98837 34.9875 7.98504 34.9917 11.6517L35.0075 28.3184C35.0117 31.9859 32.0142 34.9884 28.3475 34.9917Z" fill="url(#paint1_radial)"/>
<path d="M20 25.8332C16.7842 25.8332 14.1667 23.2165 14.1667 19.9998C14.1667 16.7832 16.7842 14.1665 20 14.1665C23.2158 14.1665 25.8333 16.7832 25.8333 19.9998C25.8333 23.2165 23.2158 25.8332 20 25.8332ZM20 15.8332C17.7025 15.8332 15.8333 17.7023 15.8333 19.9998C15.8333 22.2973 17.7025 24.1665 20 24.1665C22.2975 24.1665 24.1667 22.2973 24.1667 19.9998C24.1667 17.7023 22.2975 15.8332 20 15.8332Z" fill="white"/>
<path d="M26.25 15C26.9404 15 27.5 14.4404 27.5 13.75C27.5 13.0596 26.9404 12.5 26.25 12.5C25.5596 12.5 25 13.0596 25 13.75C25 14.4404 25.5596 15 26.25 15Z" fill="white"/>
<path d="M25 30.8332H15C11.7842 30.8332 9.16666 28.2165 9.16666 24.9998V14.9998C9.16666 11.7832 11.7842 9.1665 15 9.1665H25C28.2158 9.1665 30.8333 11.7832 30.8333 14.9998V24.9998C30.8333 28.2165 28.2158 30.8332 25 30.8332ZM15 10.8332C12.7025 10.8332 10.8333 12.7023 10.8333 14.9998V24.9998C10.8333 27.2973 12.7025 29.1665 15 29.1665H25C27.2975 29.1665 29.1667 27.2973 29.1667 24.9998V14.9998C29.1667 12.7023 27.2975 10.8332 25 10.8332H15Z" fill="white"/>
<defs>
<radialGradient id="paint0_radial" cx="0" cy="0" r="1" gradientUnits="userSpaceOnUse" gradientTransform="translate(16.15 35.0292) scale(37.4158)">
<stop stop-color="#FFDD55"/>
<stop offset="0.328" stop-color="#FF543F"/>
<stop offset="0.348" stop-color="#FC5245"/>
<stop offset="0.504" stop-color="#E64771"/>
<stop offset="0.643" stop-color="#D53E91"/>
<stop offset="0.761" stop-color="#CC39A4"/>
<stop offset="0.841" stop-color="#C837AB"/>
</radialGradient>
<radialGradient id="paint1_radial" cx="0" cy="0" r="1" gradientUnits="userSpaceOnUse" gradientTransform="translate(9.82167 4.61695) scale(24.8442 16.5537)">
<stop stop-color="#4168C9"/>
<stop offset="0.999" stop-color="#4168C9" stop-opacity="0"/>
</radialGradient>
</defs>
</svg>
