<svg width="40" height="40" viewBox="0 0 40 40" fill="none" xmlns="http://www.w3.org/2000/svg">
<path d="M20 3.3335C10.795 3.3335 3.33331 10.7952 3.33331 20.0002C3.33331 29.2052 10.795 36.6668 20 36.6668C29.205 36.6668 36.6666 29.2052 36.6666 20.0002C36.6666 10.7952 29.205 3.3335 20 3.3335Z" fill="url(#paint0_linear)"/>
<path d="M22.2559 24.4176H26.5692L27.2467 20.0359H22.2559V17.6409C22.2559 15.8209 22.8509 14.2068 24.5534 14.2068H27.2892V10.3834C26.8084 10.3184 25.7917 10.1768 23.8709 10.1768C19.8592 10.1768 17.5075 12.2951 17.5075 17.1218V20.0368H13.3834V24.4184H17.5067V36.4618C18.3234 36.5834 19.1509 36.6668 20 36.6668C20.7675 36.6668 21.5167 36.5968 22.2559 36.4968V24.4176Z" fill="white"/>
<defs>
<linearGradient id="paint0_linear" x1="8.32748" y1="8.32766" x2="33.8458" y2="33.846" gradientUnits="userSpaceOnUse">
<stop stop-color="#2AA4F4"/>
<stop offset="1" stop-color="#007AD9"/>
</linearGradient>
</defs>
</svg>
